<svg width="24" height="24" viewBox="0 0 24 24" fill="none" xmlns="http://www.w3.org/2000/svg">
    <path d="M3.8315 6.13914H7.68987V5.55306C7.68987 4.82046 8.27595 4.23438 9.00855 4.23438H14.9915C15.7241 4.23438 16.3101 4.82046 16.3101 5.55306V6.13914H20.1685C21.1697 6.13914 22 6.96942 22 7.97064V17.934C22 18.9352 21.1697 19.7655 20.1685 19.7655H3.8315C2.83028 19.7655 2 18.9352 2 17.934V7.97064C2 6.945 2.83028 6.13914 3.8315 6.13914Z" stroke="#091964" stroke-width="1.5" stroke-linecap="round" stroke-linejoin="round"/>
    <path d="M14.7714 10.1931C14.0632 9.48496 13.0864 9.06982 12.0119 9.06982C10.9375 9.06982 9.96066 9.50938 9.25248 10.2176C8.5443 10.9257 8.10474 11.9025 8.10474 12.977C8.10474 14.0515 8.5443 15.0283 9.25248 15.7365C9.96066 16.4447 10.9375 16.8842 12.0119 16.8842C13.0864 16.8842 14.0632 16.4447 14.7714 15.7365C15.4796 15.0283 15.9191 14.0515 15.9191 12.977C15.8947 11.8781 15.4552 10.9013 14.7714 10.1931Z" stroke="#091964" stroke-width="1.5" stroke-linecap="round" stroke-linejoin="round"/>
</svg>
