<svg width="18" height="19" viewBox="0 0 18 19" fill="none" xmlns="http://www.w3.org/2000/svg">
    <path d="M14.1854 13.2688C13.3537 14.1005 11.6427 15.8115 10.4134 17.0408C9.63233 17.8219 8.36721 17.8215 7.58616 17.0404C6.37859 15.8329 4.70045 14.1547 3.81451 13.2688C0.950665 10.4049 0.950665 5.76173 3.81451 2.89788C6.67835 0.0340389 11.3216 0.0340389 14.1854 2.89788C17.0493 5.76173 17.0493 10.4049 14.1854 13.2688Z" stroke="#FF4026" stroke-width="1.5" stroke-linecap="round" stroke-linejoin="round"/>
    <path d="M11.75 8.08333C11.75 9.60212 10.5187 10.8333 8.99996 10.8333C7.48118 10.8333 6.24996 9.60212 6.24996 8.08333C6.24996 6.56455 7.48118 5.33333 8.99996 5.33333C10.5187 5.33333 11.75 6.56455 11.75 8.08333Z" stroke="#FF4026" stroke-width="1.5" stroke-linecap="round" stroke-linejoin="round"/>
</svg>
