<svg width="25" height="24" viewBox="0 0 25 24" fill="none" xmlns="http://www.w3.org/2000/svg">
    <path fill-rule="evenodd" clip-rule="evenodd" d="M2.5 11.999C2.5 6.47618 6.97715 1.99902 12.5 1.99902C18.0228 1.99902 22.5 6.47618 22.5 11.999C22.5 17.5219 18.0228 21.999 12.5 21.999C6.97715 21.999 2.5 17.5219 2.5 11.999ZM12.5 8C13.0523 8 13.5 8.44772 13.5 9V11H15.5C16.0523 11 16.5 11.4477 16.5 12C16.5 12.5523 16.0523 13 15.5 13H13.5V15C13.5 15.5523 13.0523 16 12.5 16C11.9477 16 11.5 15.5523 11.5 15V13H9.5C8.94772 13 8.5 12.5523 8.5 12C8.5 11.4477 8.94772 11 9.5 11H11.5V9C11.5 8.44772 11.9477 8 12.5 8Z" fill="#FF4026"/>
</svg>
